<svg id="Слой_1" data-name="Слой 1" xmlns="http://www.w3.org/2000/svg" viewBox="0 0 216.71 67.97"><defs><style>.cls-1{fill:#c0d9ec}.cls-2{fill:#0566b6}</style></defs><path class="cls-1" d="M217.9 2.1L219 2v67l-1.08-.08-.02-66.82z" transform="translate(-2.29 -2)"/><path class="cls-2" d="M53.83 25.9Q47.94 46.44 42 67c-.14.47-.33.93-.61 1.7h-12L17.18 25.89l-.9-3.89-.85.13v46.61H2.29V2.43h20.8L35 42.88l1.39.14L48.62 2.25h20.19v66.38H55.59V22.11l-.86-.11zm88.62 39.85l-1.08 3.12H129V2.32h12.7v20.16c15.85-6.65 28.39-3.81 36 11.6 4.86 9.85 2.08 21.82-5.8 29.34-8.12 7.75-17.01 8.49-29.45 2.33zm23.77-21.27a12 12 0 1 0-11.84 12.35 12.18 12.18 0 0 0 11.84-12.34z" transform="translate(-2.29 -2)"/><path d="M73.86 44.32a25.32 25.32 0 0 1 24.86-25.24C112.66 19 124.07 30.66 124 45c0 13.48-11.71 25-25.21 25a25.3 25.3 0 0 1-24.93-25.68zm36.69.47a11.66 11.66 0 0 0-11.32-12 11.8 11.8 0 1 0-.5 23.59 11.71 11.71 0 0 0 11.83-11.59z" transform="translate(-2.29 -2)" fill="#fc0b04"/><path class="cls-2" d="M217.9 2.1v66.82h-12.65V2.1zm-33.42 18.21h13.08V68.6h-13.08zm12.96-5.56h-13V2.42h13z" transform="translate(-2.29 -2)"/><path class="cls-1" d="M15.43 26.11v-4l.85-.13.89 3.85zm38.4-.21l.9-3.9.87.12v4z" transform="translate(-2.29 -2)"/></svg>