<svg id="Слой_1" data-name="Слой 1" xmlns="http://www.w3.org/2000/svg" viewBox="0 0 216.71 67.97"><defs><style>.cls-1{fill:#c0d9ec;}.cls-2{fill:#0566b6;}.cls-3{fill:#fc0b04;}</style></defs><title>work-3</title><path class="cls-1" d="M217.9,2.1,219,2V69l-1.08-.08Q217.91,35.51,217.9,2.1Z" transform="translate(-2.29 -2)"/><path class="cls-2" d="M53.83,25.9Q47.94,46.44,42,67c-.14.47-.33.93-.61,1.7h-12L17.18,25.89,16.28,22l-.85.13V68.74H2.29V2.43H23.09L35,42.88l1.39.14L48.62,2.25H68.81V68.63H55.59c0-14,0-28.29,0-42.52q0-2,0-4L54.73,22Z" transform="translate(-2.29 -2)"/><path class="cls-2" d="M142.45,65.75l-1.08,3.12H129V2.32h12.7V22.48c15.85-6.65,28.39-3.81,36,11.6,4.86,9.85,2.08,21.82-5.8,29.34C163.78,71.17,154.89,71.91,142.45,65.75Zm23.77-21.27a12,12,0,1,0-11.84,12.35A12.18,12.18,0,0,0,166.22,44.49Z" transform="translate(-2.29 -2)"/><path class="cls-3" d="M73.86,44.32A25.32,25.32,0,0,1,98.72,19.08C112.66,19,124.07,30.66,124,45c0,13.48-11.71,25-25.21,25A25.3,25.3,0,0,1,73.86,44.32Zm36.69.47a11.66,11.66,0,0,0-11.32-12,11.8,11.8,0,1,0-.5,23.59A11.71,11.71,0,0,0,110.56,44.79Z" transform="translate(-2.29 -2)"/><path class="cls-2" d="M217.9,2.1q0,33.41,0,66.82H205.25V2.1Z" transform="translate(-2.29 -2)"/><path class="cls-2" d="M184.48,20.31h13.08V68.6H184.48Z" transform="translate(-2.29 -2)"/><path class="cls-2" d="M197.44,14.75h-13V2.42h13Z" transform="translate(-2.29 -2)"/><path class="cls-1" d="M15.43,26.11v-4l.85-.13.89,3.85Z" transform="translate(-2.29 -2)"/><path class="cls-1" d="M53.83,25.9,54.73,22l.87.12q0,2,0,4Z" transform="translate(-2.29 -2)"/></svg>